<?xml version="1.0" encoding="utf-8"?>
<!-- Generator: Adobe Illustrator 22.1.0, SVG Export Plug-In . SVG Version: 6.00 Build 0)  -->
<svg version="1.1" id="Calque_1" xmlns="http://www.w3.org/2000/svg" xmlns:xlink="http://www.w3.org/1999/xlink" x="0px" y="0px"
	 viewBox="0 0 342 204" style="enable-background:new 0 0 342 204;" xml:space="preserve">
<style type="text/css">
	.st0{fill:#4D4D4D;}
</style>
<g>
	<polygon points="158,178.5 178.3,150.5 314.7,150.5 333.1,178.5 	"/>
	<path d="M314.5,151l17.7,27h-16.3H176h-17l19.6-27H314.5 M315,150H178l-21,29h19h139.9H334L315,150L315,150z"/>
</g>
<g>
	<polygon points="158,132.5 178.3,104.5 314.7,104.5 333.1,132.5 	"/>
	<path d="M314.5,105l17.7,27H159l19.6-27H314.5 M315,104H178l-21,29h177L315,104L315,104z"/>
</g>
<g>
	<polygon points="158,91.5 178.3,63.5 314.7,63.5 333.1,91.5 	"/>
	<path d="M314.5,64l17.7,27H159l19.6-27H314.5 M315,63H178l-21,29h177L315,63L315,63z"/>
</g>
<g>
	<polygon points="162,47.5 182.3,19.5 318.7,19.5 337.1,47.5 	"/>
	<path d="M318.5,20l17.7,27H163l19.6-27H318.5 M319,19H182l-21,29h177L319,19L319,19z"/>
</g>
<g>
	<rect x="157.5" y="179.5" class="st0" width="176" height="15"/>
	<path d="M333,180v14H158v-14H333 M334,179H157v16h177V179L334,179z"/>
</g>
<g>
	<polygon points="100.5,39.5 16.5,39.5 16.5,27.5 100.5,27.5 100.5,17.8 137.7,34 100.5,50.2 	"/>
	<path d="M101,18.5L136.5,34L101,49.5V40v-1h-1H17V28h83h1v-1V18.5 M100,17v10H16v13h84v11l39-17L100,17L100,17z"/>
</g>
<g>
	<polygon points="100.5,83.5 16.5,83.5 16.5,71.5 100.5,71.5 100.5,61.8 137.7,78 100.5,94.2 	"/>
	<path d="M101,62.5L136.5,78L101,93.5V84v-1h-1H17V72h83h1v-1V62.5 M100,61v10H16v13h84v11l39-17L100,61L100,61z"/>
</g>
<g>
	<polygon points="100.5,123.5 16.5,123.5 16.5,111.5 100.5,111.5 100.5,101.8 137.7,118 100.5,134.2 	"/>
	<path d="M101,102.5l35.5,15.5L101,133.5V124v-1h-1H17v-11h83h1v-1V102.5 M100,101v10H16v13h84v11l39-17L100,101L100,101z"/>
</g>
</svg>
