<?xml version="1.0" encoding="utf-8"?>
<!-- Generator: Adobe Illustrator 22.1.0, SVG Export Plug-In . SVG Version: 6.00 Build 0)  -->
<svg version="1.1" xmlns="http://www.w3.org/2000/svg" xmlns:xlink="http://www.w3.org/1999/xlink" x="0px" y="0px"
	 viewBox="0 0 842 595" style="enable-background:new 0 0 842 595;" xml:space="preserve">
<style type="text/css">
	.st0{clip-path:url(#SVGID_2_);}
	.st1{fill:url(#SVGID_3_);}
	.st2{fill:#939598;}
	.st3{fill:url(#SVGID_4_);}
	.st4{fill:url(#SVGID_5_);}
	.st5{fill:url(#SVGID_6_);}
	.st6{fill:url(#SVGID_7_);}
	.st7{fill:url(#SVGID_8_);}
	.st8{fill:url(#SVGID_9_);}
	.st9{fill:#00AEEF;}
	.st10{fill:url(#SVGID_10_);}
	.st11{fill:url(#SVGID_11_);}
	.st12{fill:url(#SVGID_12_);}
	.st13{fill:url(#SVGID_13_);}
	.st14{fill:url(#SVGID_14_);}
	.st15{fill:url(#SVGID_15_);}
	.st16{fill:url(#SVGID_16_);}
	.st17{fill:url(#SVGID_17_);}
	.st18{fill:url(#SVGID_18_);}
	.st19{fill:url(#SVGID_19_);}
	.st20{fill:url(#SVGID_20_);}
	.st21{fill:#FFFFFF;}
	.st22{fill:url(#SVGID_21_);}
	.st23{fill:url(#SVGID_22_);}
	.st24{fill:url(#SVGID_23_);}
	.st25{fill:url(#SVGID_24_);}
	.st26{fill:url(#SVGID_25_);}
	.st27{fill:url(#SVGID_26_);}
	.st28{fill:url(#SVGID_27_);}
	.st29{fill:url(#SVGID_28_);}
	.st30{fill:url(#SVGID_29_);}
	.st31{fill:url(#SVGID_30_);}
	.st32{fill:url(#SVGID_31_);}
	.st33{fill:url(#SVGID_32_);}
	.st34{fill:url(#SVGID_33_);}
	.st35{fill:url(#SVGID_34_);}
	.st36{fill:url(#SVGID_35_);}
	.st37{fill:url(#SVGID_36_);}
	.st38{fill:url(#SVGID_37_);}
	.st39{fill:url(#SVGID_38_);}
	.st40{fill:url(#SVGID_39_);}
	.st41{fill:url(#SVGID_40_);}
	.st42{fill:url(#SVGID_41_);}
	.st43{fill:url(#SVGID_42_);}
	.st44{fill:url(#SVGID_43_);}
	.st45{fill:url(#SVGID_44_);}
	.st46{fill:url(#SVGID_45_);}
	.st47{fill:url(#SVGID_46_);}
	.st48{fill:url(#SVGID_47_);}
	.st49{fill:url(#SVGID_48_);}
	.st50{fill:url(#SVGID_49_);}
	.st51{fill:url(#SVGID_50_);}
	.st52{fill:url(#SVGID_51_);}
</style>
<g id="_x3F__x3F__1">
	<g>
		<g>
			<defs>
				<rect id="SVGID_1_" width="842" height="595"/>
			</defs>
			<clipPath id="SVGID_2_">
				<use xlink:href="#SVGID_1_"  style="overflow:visible;"/>
			</clipPath>
			<g class="st0">
				
					<linearGradient id="SVGID_3_" gradientUnits="userSpaceOnUse" x1="411.5273" y1="-242.7113" x2="429.9212" y2="811.0757" gradientTransform="matrix(1 0 0 -1 0 596)">
					<stop  offset="0" style="stop-color:#2E3192"/>
					<stop  offset="0.51" style="stop-color:#00AEEF"/>
					<stop  offset="1" style="stop-color:#FFFFFF"/>
				</linearGradient>
				<rect x="-8" y="-12" class="st1" width="858.2" height="599.4"/>
				<path class="st2" d="M630.7,401.7c-0.1,0.1-0.2,0.1-0.4,0.2c0,0.1,0,0.1,0,0.2c0.2-0.1,0.5-0.3,0.7-0.4
					C630.9,401.7,630.8,401.7,630.7,401.7z"/>
				<path class="st2" d="M760.6,431.2c0.2,0,0.4,0,0.6,0C761,431.2,760.8,431.2,760.6,431.2z"/>
				
					<linearGradient id="SVGID_4_" gradientUnits="userSpaceOnUse" x1="1015.1383" y1="-88.3454" x2="1003.3716" y2="136.1781" gradientTransform="matrix(1 0 0 -1 0 596)">
					<stop  offset="0" style="stop-color:#2E3192"/>
					<stop  offset="0.46" style="stop-color:#00AEEF"/>
					<stop  offset="1" style="stop-color:#FFFFFF"/>
				</linearGradient>
				<path class="st3" d="M824.5,423.6c42.4,29.2,136,43.5,226.9,35.9c23-8.2,146.4-62.5,128.9-72.8c-130.6,70.6-261.1,57.7-342,17
					C829.6,405.6,808.2,405.5,824.5,423.6z"/>
				
					<linearGradient id="SVGID_5_" gradientUnits="userSpaceOnUse" x1="902.989" y1="109.656" x2="917.8282" y2="147.3246" gradientTransform="matrix(1 0 0 -1 0 596)">
					<stop  offset="0" style="stop-color:#2E3192"/>
					<stop  offset="0.46" style="stop-color:#00AEEF"/>
					<stop  offset="1" style="stop-color:#FFFFFF"/>
				</linearGradient>
				<path class="st4" d="M1035.1,457.8c-90.9,7.6-168.8-10.8-211.3-40l-20.8,4.3l-2.5,2.9c21.9,29.9,81.7,51.4,140.9,68.1
					c52.2-12.9,81.5-20.1,81.5-20.1s6.6-4.7,16.6-11.9C1038,460,1036.6,458.9,1035.1,457.8z"/>
				
					<linearGradient id="SVGID_6_" gradientUnits="userSpaceOnUse" x1="861.2105" y1="37.2401" x2="887.7468" y2="118.9106" gradientTransform="matrix(1 0 0 -1 0 596)">
					<stop  offset="0" style="stop-color:#2E3192"/>
					<stop  offset="0.46" style="stop-color:#00AEEF"/>
					<stop  offset="1" style="stop-color:#FFFFFF"/>
				</linearGradient>
				<path class="st5" d="M997,484.1c-45.7-3.4-170.3-30.5-196.6-59.1l-11.8,13.8c13.8,25.2,40.4,50.4,76.5,73.2
					C885.5,506.9,977,489.2,997,484.1z"/>
				
					<linearGradient id="SVGID_7_" gradientUnits="userSpaceOnUse" x1="829.6056" y1="75.9818" x2="856.4258" y2="121.6333" gradientTransform="matrix(1 0 0 -1 0 596)">
					<stop  offset="0" style="stop-color:#2E3192"/>
					<stop  offset="0.46" style="stop-color:#00AEEF"/>
					<stop  offset="1" style="stop-color:#FFFFFF"/>
				</linearGradient>
				<path class="st6" d="M959.5,494.9c-76.1-5.3-160.3-33.2-174.2-58.4l-37.5,26.7c8.2,20.9,65.5,34.8,84.9,57.3
					C848.4,516.6,940.8,499.6,959.5,494.9z"/>
				
					<linearGradient id="SVGID_8_" gradientUnits="userSpaceOnUse" x1="797.5311" y1="71.3686" x2="817.5137" y2="114.7587" gradientTransform="matrix(1 0 0 -1 0 596)">
					<stop  offset="0" style="stop-color:#2E3192"/>
					<stop  offset="0.46" style="stop-color:#00AEEF"/>
					<stop  offset="1" style="stop-color:#FFFFFF"/>
				</linearGradient>
				<path class="st7" d="M928.5,502.6c-94.2,2.2-154.8-22.9-185.7-38.9L692,491.4c4.3,16.1,121.5,33.9,154.9,45.1
					C856.8,534,909.5,507.4,928.5,502.6z"/>
				
					<linearGradient id="SVGID_9_" gradientUnits="userSpaceOnUse" x1="664.1068" y1="-13.4954" x2="911.4101" y2="367.3184" gradientTransform="matrix(1 0 0 -1 0 596)">
					<stop  offset="0" style="stop-color:#2E3192"/>
					<stop  offset="0.46" style="stop-color:#00AEEF"/>
					<stop  offset="1" style="stop-color:#FFFFFF"/>
				</linearGradient>
				<path class="st8" d="M823,530.8c-40.1,1.2-119.5-25.7-124.8-40l-87.9,34.1c0,0,137.8,7.1,146.4,14.1
					C765.2,545.9,823.7,544.3,823,530.8z"/>
				<path class="st2" d="M303,437.5c-0.1,0-0.2,0.1-0.2,0.1v0.1c0.2-0.1,0.3-0.1,0.5-0.2C303.2,437.5,303.1,437.5,303,437.5z"/>
				<path class="st2" d="M377.6,464.7c0.1,0,0.2,0,0.3,0C377.8,464.7,377.7,464.7,377.6,464.7z"/>
				<path class="st9" d="M507.8,489.6l-60.5-17l-26.7-19.2L366.5,483l-59.9,16.3c0,0,52.7,13.2,56.9,13.4c4.2,0.2,74.7,7.5,74.7,7.5
					S507.8,490,507.8,489.6z"/>
				
					<linearGradient id="SVGID_10_" gradientUnits="userSpaceOnUse" x1="447.093" y1="-7.715" x2="478.7961" y2="84.3574" gradientTransform="matrix(1 0 0 -1 0 596)">
					<stop  offset="0" style="stop-color:#2E3192"/>
					<stop  offset="0.46" style="stop-color:#00AEEF"/>
					<stop  offset="1" style="stop-color:#FFFFFF"/>
				</linearGradient>
				<path class="st10" d="M415.9,465c22.8,20.4,74.2,40.4,128.4,42.7c14.3-3.1,27.5-19.4,18-26.8c-14.3,2.5-23,6.1-35.9,6.4
					c-35.5,0.8-71.6-9.8-104.5-32C420,458.5,417.9,461.8,415.9,465z"/>
				
					<linearGradient id="SVGID_11_" gradientUnits="userSpaceOnUse" x1="452.0424" y1="93.9302" x2="466.4372" y2="113.1228" gradientTransform="matrix(1 0 0 -1 0 596)">
					<stop  offset="0" style="stop-color:#2E3192"/>
					<stop  offset="0.46" style="stop-color:#00AEEF"/>
					<stop  offset="1" style="stop-color:#FFFFFF"/>
				</linearGradient>
				<path class="st11" d="M525.9,503.2c-54.3-2.4-82.9-23.3-105.7-43.7l-16.8,3.1l-1.7,1.5c10.7,19.3,44.4,36.5,78.1,50.9
					c31.8-3.7,37.9-3.7,37.9-3.7s4.3-2.3,10.8-5.8C527.5,504.8,526.7,504,525.9,503.2z"/>
				
					<linearGradient id="SVGID_12_" gradientUnits="userSpaceOnUse" x1="420.0803" y1="88.8632" x2="442.0602" y2="110.4444" gradientTransform="matrix(1 0 0 -1 0 596)">
					<stop  offset="0" style="stop-color:#2E3192"/>
					<stop  offset="0.46" style="stop-color:#00AEEF"/>
					<stop  offset="1" style="stop-color:#FFFFFF"/>
				</linearGradient>
				<path class="st12" d="M480.3,510.1c-26.8-5.4-57.3-27.5-70.7-46.4l-16.1,7.6c6.2,16,20.1,32.8,39.6,49
					C445.6,518.8,468.1,511.5,480.3,510.1z"/>
				
					<linearGradient id="SVGID_13_" gradientUnits="userSpaceOnUse" x1="392.8764" y1="76.6841" x2="421.6607" y2="97.4732" gradientTransform="matrix(1 0 0 -1 0 596)">
					<stop  offset="0" style="stop-color:#2E3192"/>
					<stop  offset="0.46" style="stop-color:#00AEEF"/>
					<stop  offset="1" style="stop-color:#FFFFFF"/>
				</linearGradient>
				<path class="st13" d="M470,518.6c-44.6-8.9-70.2-31.5-76.4-47.4l-26,11.4c3.2,13,19.6,25.5,45.3,40.3
					C422.6,521.8,458.6,520,470,518.6z"/>
				
					<linearGradient id="SVGID_14_" gradientUnits="userSpaceOnUse" x1="373.406" y1="72.1252" x2="394.6004" y2="96.1182" gradientTransform="matrix(1 0 0 -1 0 596)">
					<stop  offset="0" style="stop-color:#2E3192"/>
					<stop  offset="0.46" style="stop-color:#00AEEF"/>
					<stop  offset="1" style="stop-color:#FFFFFF"/>
				</linearGradient>
				<path class="st14" d="M439.6,525.9c-55.8-5.8-66.4-34.1-75.1-43.3L331,494.9c1.4,9.8,47.9,25.5,66.8,34.7
					C403.9,528.9,428,527.3,439.6,525.9z"/>
				
					<linearGradient id="SVGID_15_" gradientUnits="userSpaceOnUse" x1="338.8304" y1="70.1123" x2="424.7336" y2="150.2184" gradientTransform="matrix(1 0 0 -1 0 596)">
					<stop  offset="0" style="stop-color:#2E3192"/>
					<stop  offset="0.46" style="stop-color:#00AEEF"/>
					<stop  offset="1" style="stop-color:#FFFFFF"/>
				</linearGradient>
				<path class="st15" d="M410.6,529.5c-26.5,1.3-65.8-33.3-67.9-42.2l-61.1,21.4c0,0,83.2,19.8,85.4,19.4
					C369.4,527.7,406.6,530,410.6,529.5z"/>
				<path class="st2" d="M367.5,444.2c-0.1,0.1-0.2,0.1-0.3,0.2c0,0.1,0,0.1,0,0.2c0.2-0.1,0.4-0.2,0.7-0.3
					C367.7,444.2,367.6,444.2,367.5,444.2z"/>
				<path class="st2" d="M476.4,479.5c0.2,0,0.3,0,0.5,0C476.7,479.5,476.6,479.5,476.4,479.5z"/>
				
					<linearGradient id="SVGID_16_" gradientUnits="userSpaceOnUse" x1="613.9094" y1="64.9552" x2="638.9696" y2="101.3154" gradientTransform="matrix(1 0 0 -1 0 596)">
					<stop  offset="0" style="stop-color:#2E3192"/>
					<stop  offset="0.46" style="stop-color:#00AEEF"/>
					<stop  offset="1" style="stop-color:#FFFFFF"/>
				</linearGradient>
				<path class="st16" d="M723.9,528.4c-74.1-8.1-138.3-27.2-172.4-55.4l-20.9-2.9l-2.4,2.3c2.2,34.4,64.5,51.1,115.2,69.3
					c30.7,5.2,50.1,2.7,50.1,2.7s38.3-9.2,47.6-14.7C739.9,528.6,725,529.4,723.9,528.4z"/>
				
					<linearGradient id="SVGID_17_" gradientUnits="userSpaceOnUse" x1="576.6285" y1="50.9056" x2="603.5211" y2="91.7435" gradientTransform="matrix(1 0 0 -1 0 596)">
					<stop  offset="0" style="stop-color:#2E3192"/>
					<stop  offset="0.46" style="stop-color:#00AEEF"/>
					<stop  offset="1" style="stop-color:#FFFFFF"/>
				</linearGradient>
				<path class="st17" d="M689.1,544.5c-38.9-6.5-141.7-40.6-162-67.1l-27.3,14.2c9.9,22.6,30.7,43,59.7,65.3
					C577.4,554.1,635.8,570.8,689.1,544.5z"/>
				
					<linearGradient id="SVGID_18_" gradientUnits="userSpaceOnUse" x1="531.5427" y1="30.7639" x2="568.9457" y2="88.4944" gradientTransform="matrix(1 0 0 -1 0 596)">
					<stop  offset="0" style="stop-color:#2E3192"/>
					<stop  offset="0.46" style="stop-color:#00AEEF"/>
					<stop  offset="1" style="stop-color:#FFFFFF"/>
				</linearGradient>
				<path class="st18" d="M663,557.1c-64.8-10.5-147-39.6-163.2-62.2l-59.1,16c5.3,18.5,75.5,30,90.4,50.9
					C544.8,559.6,633.4,570,663,557.1z"/>
				
					<linearGradient id="SVGID_19_" gradientUnits="userSpaceOnUse" x1="471.869" y1="33.865" x2="500.5776" y2="62.5736" gradientTransform="matrix(1 0 0 -1 0 596)">
					<stop  offset="0" style="stop-color:#2E3192"/>
					<stop  offset="0.46" style="stop-color:#00AEEF"/>
					<stop  offset="1" style="stop-color:#FFFFFF"/>
				</linearGradient>
				<path class="st19" d="M591.9,555.6c-80.8-1.7-119.7-24.2-145-45.9l-53.2,17.1c2.4,14.1,89.2,23.8,117.1,35.9
					C519.4,561.3,575.3,558.1,591.9,555.6z"/>
				
					<linearGradient id="SVGID_20_" gradientUnits="userSpaceOnUse" x1="346.833" y1="-83.0978" x2="614.127" y2="246.9825" gradientTransform="matrix(1 0 0 -1 0 596)">
					<stop  offset="0" style="stop-color:#2E3192"/>
					<stop  offset="0.46" style="stop-color:#00AEEF"/>
					<stop  offset="1" style="stop-color:#FFFFFF"/>
				</linearGradient>
				<path class="st20" d="M554.2,562.2c-38.2,3.4-132.5-23.8-136-36.4l-78,22.2c0,0,121,24.3,124.3,23.5
					C467.8,570.7,548.5,563,554.2,562.2z"/>
				<path class="st9" d="M214.3,334.5c4.4,0.1,8.1,1.7,10.7,3.5c0.7,2.9,1,8.6,2.9,10.4c1.7,0.5,3.6,0.9,5.3,1.3
					c2.7,1,6.3,3.2,8.1,5.3c0,0.3,0,0.6,0,0.8c-10.6,0.4-21.7,17-20.9,28c-0.4,0-0.7,0-1.1,0c-5.9-6.7-11.7-12.6-22.1-14.9
					c-4.4-1-11.7,3.3-16.3,0.6c-7-4.2-1-23.7,1.7-27.4c1.1-1.4,4.1-2.9,5.9-3.5c5-1.6,7.6,3.9,11,2.9c6.5-1.3,4-1.6,7.5-5.6
					C209.2,335.3,211.7,335,214.3,334.5z"/>
				<path class="st21" d="M832.3,423.4c-8.5-4.7-24.6,1-29.3,3.8c-23.2,13.7,31.5,36.8,71.1,53.1c-54.9-9.1-88.3-41.7-100.8-32.5
					c-1.9,1.4-4,2.2-4.3,5.4c4,7.7,9.3,8.5,16.3,12.5c-11,0-33.4-8-41.4,2.7c0,0.7,0,1.3,0,2c1.2,0.8,2.2,1.6,3.4,2.5
					c-0.1,0.2,25,14.4,24.9,14.4c-7.8,1.7-49.5-13-51.2-4.5c1.6,4,15.1,8.3,15.7,9.8c-13.9,0-22.1-8.1-35,0.7
					c-3.1,6,36.3,14.9,36.3,19c-6.8-0.1-63.4-11.6-65.9-7.3c0.9,5.4,23.4,10.2,24.4,12.7c-4.7,0.2-54.9-5.1-56.5-6.2
					c0.1-0.2,12.4-4.6,12.4-4.8c5-0.1,8.5-2.6,12.3-4c5.6-2.1,11.5-3.2,16.6-5.8c4.9-2.7,9.7-5.4,14.6-8.1l0.4-0.2
					c7.4-8.8,18.2-21.6,25.2-21.6c14.8,0,15.4-16.6,20.3-18.4c7.6-2.9,17.1-3.9,17.1-13.8c0-23.1,13.7-14.2,27.7-21.2
					c9.3-4.6,8.2-16.1,26.7-16.1c10.5,0,19.5,3.3,30.4,3.7c18.8,0.8,36.1,9.8,20.7,6.9C857.6,407.1,820.3,403,832.3,423.4z"/>
				<path class="st21" d="M461.1,431c4.2-0.1,5.7,1.8,8.1,3.6c0.7,3.5-1,7.4-4.7,7.8c0-0.2,0-0.5,0-0.7c0.8-1.4,1.2-2.8,0.2-4.2
					c-3-1-7-2.2-11-1.2c0.2-0.3,0.3-0.6,0.5-0.9C455.7,433,458.8,432.5,461.1,431z"/>
				<path class="st21" d="M345.9,450c7.3-0.2,15.6,1.6,16.1,7.8c-0.1,0.2-0.2,0.5-0.2,0.7c-6.5,3.2-5.4-1.8-8.9-4.2
					c-2.5-1.1-5-2.1-7.6-3.1c-0.1-0.3-0.2-0.6-0.2-0.9C345.3,450.2,345.6,450.1,345.9,450z"/>
				<path class="st2" d="M522,473.7c-0.2,0.1-0.3,0.2-0.5,0.2c0,0.1,0,0.2,0,0.2c0.3-0.2,0.6-0.3,0.9-0.5
					C522.3,473.7,522.2,473.7,522,473.7z"/>
				<path class="st2" d="M675.8,521.2c0.2,0,0.5,0,0.7,0C676.3,521.2,676,521.2,675.8,521.2z"/>
				<path class="st9" d="M942.1,558.6l-124.3-28.3l-56-36l-106.7,65.1l-119.7,39.1c0,0,108.2,21.5,116.6,21.5
					c8.4,0,151.9,7.7,151.9,7.7S942.1,559.4,942.1,558.6z"/>
				<path class="st21" d="M441.4,432.1c2.9-0.1,8.6,3.5,9.4,5.4c-5.7,0.6-11.4,0.1-14.6,4.2c0.3,3.3,5.1,8.1,0.6,8.3
					c-1.9,0.1-4.7,1.6-1,2c1.5,0.2,3.1,0.3,2.5,2.8c-1.7,1.3-1.8,2.6-0.5,4c11.3,12.8,42.9,22.2,61.7,27.1
					c-19.7,0-51-11.2-67.1-22.6c-3.4-2.4-9.5-4.4-3.3,2.1c3.3,3.5,8.3,8.2,8.3,9.1c-0.2-0.2-11.4-8.7-11.6-8.9
					c-3.4-1.3-10.7-5.6-6.3,1.3c3.8,6,13.6,18.9,27.4,29.7c-15-5.8-38.6-31.8-42.3-29.1c-2,10,12.6,25.8,26.7,39.2
					c-3.5-1.2-22.4-12.6-32.5-21.3c-4.1-3.5-12.4-10.6-5.9,0.6c2.7,4.6,7.6,9.1,7.9,12.4c-0.1,0-7.9-5.3-8-5.3
					c-0.3-0.3-0.6-0.6-0.9-0.9c-4-2.3-16.3-17-22.8-6.7c-4.3,5.9,29.7,29.2,29.7,29.3c-8,0-30.1-17.1-38-22.6
					c-2.1-1.4-3.7-4.2-6.3-5.1c-2.2-0.8-4.1,0.6-5.3,1.3c-1.4,7.1,14.7,17.9,16.7,23.3c-0.4,0-13.8-10.6-14.2-10.6
					c-3-2.2-12.9-14.2-16.1-9.3c-1.6,3.7,10.9,14.3,11.6,16.9c-0.8,0-18.3-3.7-23.4-6.3c-4.5-2.2-11.4-6.4-15-9.1c0-0.1,0-0.2,0-0.2
					c0.1-0.1,0.2-0.2,0.2-0.2c5,0,14.9-5.5,19.3-6.7c6.2-0.9,12.4-1.6,18.5-2.5c16.8-5.1,30.2-10.4,42.7-19.2
					c3.7-2.6,9.2-4.8,12-8.3c1.8-2.3,2.8-5.7,5.1-7.6c1.3-1,5.1-3.8,7.2-3.4c1.5,0.3,2.5,2.6,5.1,1.8c1.2-0.9,2.4-1.8,3.6-2.7
					c1.9-1,4.4-1.2,6.3-2.5s3.1-3.9,5.1-5.4C436.6,435,439,433.6,441.4,432.1z"/>
				<g>
					
						<linearGradient id="SVGID_21_" gradientUnits="userSpaceOnUse" x1="105.3223" y1="152.3311" x2="249.1926" y2="152.3311" gradientTransform="matrix(1 0 0 -1 0 596)">
						<stop  offset="0" style="stop-color:#2E3192"/>
						<stop  offset="0.46" style="stop-color:#00AEEF"/>
						<stop  offset="1" style="stop-color:#FFFFFF"/>
					</linearGradient>
					<path class="st22" d="M220.7,385.9c0.8,8.1,1.6,16.2,2.3,24.3c4.7,17.3,9.5,34.2,21,44.4c-0.1,0.2-0.2,0.3-0.2,0.5
						c-4.5,0.9-10.5,5.7-12.7,9.2c0.2,6.2,5.5,5.1,5.4,13.4c-2.4,0.9-5.7,3.9-8.7,3.4c-3.2-0.6-5.7-6-11.8-4.3
						c-7.8,2.1-15.5,5.9-20.6,10.9c-4.4,4.5-2.1,10-4,17c-1.7,6.4-10,22.7-19.1,20.9c-33.1-6.6-48.3-25.3-59.7-54.1
						c-2.6-6.6-3.3-17.8-2.1-25.2c0.2-3.6,0.3-7.1,0.5-10.7c5.1-20,12-43,26.4-53.4c0.6,0.5,1.1,1,1.7,1.4c3.1-1.9,6.3-3.9,9.4-5.8
						c2.1-0.7,19.9-16.4,21-16C219.4,376.5,206.4,368.3,220.7,385.9z"/>
					
						<linearGradient id="SVGID_22_" gradientUnits="userSpaceOnUse" x1="107.9058" y1="123.0943" x2="167.2463" y2="146.3658" gradientTransform="matrix(1 0 0 -1 0 596)">
						<stop  offset="0" style="stop-color:#2E3192"/>
						<stop  offset="0.46" style="stop-color:#00AEEF"/>
						<stop  offset="1" style="stop-color:#FFFFFF"/>
					</linearGradient>
					<path class="st23" d="M189.3,510.2c-32.9-21.6-53.9-53.9-53.9-90.1c0-13.9,3.1-27.3,8.7-39.6l-5.1,3.2l-1.7-1.4
						c-14.5,10.4-21.3,33.4-26.4,53.4l-0.5,10.7c-1.2,7.5-0.5,18.6,2.1,25.2c11.5,28.8,26.6,47.5,59.7,54.1
						C179.3,527,185.9,517.5,189.3,510.2z"/>
					
						<linearGradient id="SVGID_23_" gradientUnits="userSpaceOnUse" x1="142.1338" y1="145.0112" x2="187.51" y2="163.6278" gradientTransform="matrix(1 0 0 -1 0 596)">
						<stop  offset="0" style="stop-color:#2E3192"/>
						<stop  offset="0.46" style="stop-color:#00AEEF"/>
						<stop  offset="1" style="stop-color:#FFFFFF"/>
					</linearGradient>
					<path class="st24" d="M135.3,419.9c0,36.2,21,68.7,53.9,90.1c1-2.1,1.7-4,2-5.5c1.9-6.9-0.4-12.5,4-17c1.1-1.2,2.3-2.1,3.6-3.2
						c-22.3-20.5-35.8-47.1-35.8-76.2c0-16,4.1-31.2,11.5-45.2c-1.7-0.5-3.4-1-5.2-1.5c-1.2-0.3-18.9,15.3-21,16l-4.3,2.7
						C138.4,392.8,135.3,406,135.3,419.9z"/>
					
						<linearGradient id="SVGID_24_" gradientUnits="userSpaceOnUse" x1="166.0251" y1="164.6232" x2="211.4105" y2="180.9154" gradientTransform="matrix(1 0 0 -1 0 596)">
						<stop  offset="0" style="stop-color:#2E3192"/>
						<stop  offset="0.46" style="stop-color:#00AEEF"/>
						<stop  offset="1" style="stop-color:#FFFFFF"/>
					</linearGradient>
					<path class="st25" d="M163.2,408.4c0,29.1,13.5,55.7,35.8,76.2c4.6-3.4,10.4-6,16.2-7.6c-15.3-18.4-24.2-40.4-24.2-63.9
						c0-15,3.6-29.4,10.1-42.5c-5.3-1.4-13.5-3.5-26.5-7.2C167.3,377.1,163.2,392.4,163.2,408.4z"/>
					
						<linearGradient id="SVGID_25_" gradientUnits="userSpaceOnUse" x1="189.1916" y1="164.7457" x2="227.6424" y2="172.9018" gradientTransform="matrix(1 0 0 -1 0 596)">
						<stop  offset="0" style="stop-color:#2E3192"/>
						<stop  offset="0.46" style="stop-color:#00AEEF"/>
						<stop  offset="1" style="stop-color:#FFFFFF"/>
					</linearGradient>
					<path class="st26" d="M191.1,413c0,23.6,8.9,45.6,24.2,63.9c0.2-0.1,0.5-0.1,0.7-0.2c6.1-1.6,8.5,3.9,11.8,4.3
						c3,0.5,6.3-2.6,8.7-3.4c0.1-8.2-5.2-7.2-5.4-13.4c0.4-0.6,0.9-1.2,1.4-1.8c-14.5-18.1-22.8-39.4-22.8-62.3
						c0-8.4,1.2-16.6,3.3-24.5c-2.3-2.5-4.6-3.4-11.6-5.3C194.7,383.7,191.1,398,191.1,413z"/>
					
						<linearGradient id="SVGID_26_" gradientUnits="userSpaceOnUse" x1="209.0565" y1="171.9987" x2="239.2044" y2="182.5995" gradientTransform="matrix(1 0 0 -1 0 596)">
						<stop  offset="0" style="stop-color:#2E3192"/>
						<stop  offset="0.46" style="stop-color:#00AEEF"/>
						<stop  offset="1" style="stop-color:#FFFFFF"/>
					</linearGradient>
					<path class="st27" d="M209.6,400.3c0,22.9,8.3,44.2,22.8,62.3c2.8-3.2,7.6-6.7,11.4-7.4l0.2-0.5c-11.6-10.2-16.4-27.1-21-44.4
						l-2.3-24.3c-4.2-5.2-6-8.2-7.9-10.1C210.7,383.7,209.6,391.9,209.6,400.3z"/>
				</g>
				
					<linearGradient id="SVGID_27_" gradientUnits="userSpaceOnUse" x1="-26.3987" y1="65.6439" x2="781.078" y2="23.3258" gradientTransform="matrix(1 0 0 -1 0 596)">
					<stop  offset="0" style="stop-color:#2E3192"/>
					<stop  offset="0.46" style="stop-color:#00AEEF"/>
					<stop  offset="1" style="stop-color:#FFFFFF"/>
				</linearGradient>
				<path class="st28" d="M640.2,563.3l-103.3-8.8l-122.6-18l-144.2-52.9l-92,58.8L59.1,584.1c0,0,108.6,19.2,117.1,19.1
					c8.4-0.2,331.1,14.8,331.1,14.8S640.2,564.1,640.2,563.3z"/>
				
					<linearGradient id="SVGID_28_" gradientUnits="userSpaceOnUse" x1="446.114" y1="4.7845" x2="483.8774" y2="87.5034" gradientTransform="matrix(1 0 0 -1 0 596)">
					<stop  offset="0" style="stop-color:#2E3192"/>
					<stop  offset="0.46" style="stop-color:#00AEEF"/>
					<stop  offset="1" style="stop-color:#FFFFFF"/>
				</linearGradient>
				<path class="st29" d="M294.5,492.6c39.1,48.3,142.6,97,250.5,119.2c29.5-1.5,121.7-29,105.1-46.9l-139.9-25.3l-84.7-3.8
					L294.5,492.6z"/>
				
					<linearGradient id="SVGID_29_" gradientUnits="userSpaceOnUse" x1="374.0022" y1="-1.2296" x2="407.7704" y2="58.156" gradientTransform="matrix(1 0 0 -1 0 596)">
					<stop  offset="0" style="stop-color:#2E3192"/>
					<stop  offset="0.46" style="stop-color:#00AEEF"/>
					<stop  offset="1" style="stop-color:#FFFFFF"/>
				</linearGradient>
				<path class="st30" d="M540.4,604.7C432.5,582.5,333.6,541,294.5,492.6l-24.4-9l-3.9,2.5c15.2,42.1,77,87.5,139.8,127.1
					c64.9,3,101.4,4.6,101.4,4.6s9.2-3.2,23.4-8.2C529.3,607.9,541.7,606.6,540.4,604.7z"/>
				
					<linearGradient id="SVGID_30_" gradientUnits="userSpaceOnUse" x1="286.1617" y1="11.5479" x2="336.2654" y2="45.339" gradientTransform="matrix(1 0 0 -1 0 596)">
					<stop  offset="0" style="stop-color:#2E3192"/>
					<stop  offset="0.46" style="stop-color:#00AEEF"/>
					<stop  offset="1" style="stop-color:#FFFFFF"/>
				</linearGradient>
				<path class="st31" d="M411.3,612.4c-51.8-19.6-124.6-84.1-145.2-126.2L247.7,498c7.4,33.9,29.5,72.1,63.5,110.9
					C336.5,610,386.6,611.3,411.3,612.4z"/>
				
					<linearGradient id="SVGID_31_" gradientUnits="userSpaceOnUse" x1="253.2159" y1="10.5814" x2="301.0044" y2="39.7206" gradientTransform="matrix(1 0 0 -1 0 596)">
					<stop  offset="0" style="stop-color:#2E3192"/>
					<stop  offset="0.46" style="stop-color:#00AEEF"/>
					<stop  offset="1" style="stop-color:#FFFFFF"/>
				</linearGradient>
				<path class="st32" d="M357.7,612.5c-74.1-37.8-102.7-80.6-110-114.5l-27.5,17.6c2.2,27,35.7,59.5,50.3,92.2
					C290.2,608.7,334.5,611.5,357.7,612.5z"/>
				
					<linearGradient id="SVGID_32_" gradientUnits="userSpaceOnUse" x1="218.4852" y1="15.2798" x2="262.1292" y2="37.6401" gradientTransform="matrix(1 0 0 -1 0 596)">
					<stop  offset="0" style="stop-color:#2E3192"/>
					<stop  offset="0.46" style="stop-color:#00AEEF"/>
					<stop  offset="1" style="stop-color:#FFFFFF"/>
				</linearGradient>
				<path class="st33" d="M296.3,608.4c-42-32.7-67.4-75.4-64.4-102.1l-33.3,23.1c-0.6,20,5.1,53,40.1,77.4
					C251.2,607.2,272.7,607.3,296.3,608.4z"/>
				
					<linearGradient id="SVGID_33_" gradientUnits="userSpaceOnUse" x1="132.019" y1="2.7248" x2="227.5245" y2="31.8423" gradientTransform="matrix(1 0 0 -1 0 596)">
					<stop  offset="0" style="stop-color:#2E3192"/>
					<stop  offset="0.46" style="stop-color:#00AEEF"/>
					<stop  offset="1" style="stop-color:#FFFFFF"/>
				</linearGradient>
				<path class="st34" d="M241.1,606.7c-37.4-37.2-46.8-61.6-39.2-81.3l-25.5,15.9L59.1,584.1c0,0,112.3,19.2,117.1,19.1
					C180.9,603,233,606.4,241.1,606.7z"/>
				<path class="st2" d="M1132.4,466.5c0.2,0,0.5-0.1,0.7-0.1C1132.8,466.4,1132.6,466.5,1132.4,466.5z"/>
				
					<linearGradient id="SVGID_34_" gradientUnits="userSpaceOnUse" x1="956.5717" y1="-312.9661" x2="966.6597" y2="-24.0835" gradientTransform="matrix(1 0 0 -1 0 596)">
					<stop  offset="0" style="stop-color:#2E3192"/>
					<stop  offset="0.46" style="stop-color:#00AEEF"/>
					<stop  offset="1" style="stop-color:#FFFFFF"/>
				</linearGradient>
				<path class="st35" d="M753.5,518c48.3,39.1,159.7,65.2,269.9,64.5c28.5-7.7,182.1-61.6,162.1-75.7
					c-164,72.9-332.6,52.4-420.7-9.1C760.9,504.5,757.2,511.3,753.5,518z"/>
				
					<linearGradient id="SVGID_35_" gradientUnits="userSpaceOnUse" x1="831.8511" y1="-3.4915" x2="859.8345" y2="35.913" gradientTransform="matrix(1 0 0 -1 0 596)">
					<stop  offset="0" style="stop-color:#2E3192"/>
					<stop  offset="0.46" style="stop-color:#00AEEF"/>
					<stop  offset="1" style="stop-color:#FFFFFF"/>
				</linearGradient>
				<path class="st36" d="M1003.8,578.9c-110.2,0.7-202-21.9-250.4-61l-25.7-3.7l-3.3,3.3c23.7,37.9,93.6,69.5,163.3,95.2
					c64.1-10.6,100.1-16.6,100.1-16.6s8.3-5.1,21.2-12.9C1007.1,581.9,1005.5,580.5,1003.8,578.9z"/>
				
					<linearGradient id="SVGID_36_" gradientUnits="userSpaceOnUse" x1="791.4017" y1="-30.0084" x2="830.2125" y2="23.0706" gradientTransform="matrix(1 0 0 -1 0 596)">
					<stop  offset="0" style="stop-color:#2E3192"/>
					<stop  offset="0.46" style="stop-color:#00AEEF"/>
					<stop  offset="1" style="stop-color:#FFFFFF"/>
				</linearGradient>
				<path class="st37" d="M955.6,607.2c-54.8-8.3-202.2-52.8-231.2-89.6l-15.5,15.4c14.3,31.7,44,64.4,85.2,95.3
					C819.1,624.1,931,611.3,955.6,607.2z"/>
				
					<linearGradient id="SVGID_37_" gradientUnits="userSpaceOnUse" x1="750.7571" y1="-39.3523" x2="792.422" y2="21.7188" gradientTransform="matrix(1 0 0 -1 0 596)">
					<stop  offset="0" style="stop-color:#2E3192"/>
					<stop  offset="0.46" style="stop-color:#00AEEF"/>
					<stop  offset="1" style="stop-color:#FFFFFF"/>
				</linearGradient>
				<path class="st38" d="M909.3,616.7c-91.2-13.5-186.2-52-200.5-83.7l-51.5,25.6c7.9,25.9,75.6,48.1,96.8,77
					C773.5,632.4,886.4,620.5,909.3,616.7z"/>
				
					<linearGradient id="SVGID_38_" gradientUnits="userSpaceOnUse" x1="691.964" y1="-48.7796" x2="730.7943" y2="-5.9506" gradientTransform="matrix(1 0 0 -1 0 596)">
					<stop  offset="0" style="stop-color:#2E3192"/>
					<stop  offset="0.46" style="stop-color:#00AEEF"/>
					<stop  offset="1" style="stop-color:#FFFFFF"/>
				</linearGradient>
				<path class="st39" d="M871.2,623c-113.6-6.2-184.3-42.1-220.1-64.1l-66.5,28.3c3.7,19.7,101.7,33.5,141,50.2
					C737.8,635.3,847.9,627,871.2,623z"/>
				
					<linearGradient id="SVGID_39_" gradientUnits="userSpaceOnUse" x1="502.5111" y1="-196.5265" x2="880.5353" y2="287.3224" gradientTransform="matrix(1 0 0 -1 0 596)">
					<stop  offset="0" style="stop-color:#2E3192"/>
					<stop  offset="0.46" style="stop-color:#00AEEF"/>
					<stop  offset="1" style="stop-color:#FFFFFF"/>
				</linearGradient>
				<path class="st40" d="M786.7,635.8c-53.6,5.4-192.6-30.7-197.8-48.4l-111.3,30c0,0,178.6,34.4,183.2,33.3
					C665.4,649.6,778.7,637.3,786.7,635.8z"/>
				<path class="st21" d="M813.2,464.7c7.6,0.1,20.6,8.7,9.8,14.5c-0.6-0.1-1.2-0.2-1.7-0.2c0-1,0-1.9,0-2.9
					c4.7-4.8-12-9.8-15.4-7.1c-2.5,1.3-0.5,3.8-1.7,5.8c-1.7,1.6-3.5,0.1-5.6,0.5c-5.8,1.1-16.1,3.3-16.3,9.8c0.9,2,1.2,3.7,3.4,4.4
					c4.7,1.8,7.4-3.2,11-1.2c0,0.2,0,0.3,0,0.5c0.3,1.2,0.1,1.6-0.5,2.5c-5,0-10.4,0.9-13.4,2.9c0,3.5-0.8,7,0.5,9.8
					c1,2.3,10,10.6,12.3,11.8c1.8,0.4,3.7,0.8,5.6,1.2c1.6,1.1,2.9,3.3,4.5,4.2c8.4,5,19,7.4,28.8,10.7c3.1,1.1,20.5,2.5,21.5,4
					c-5,0-9.8,0-14.8,0c-12.7-2.5-26.8-5.7-37.4-10.7c-6.6-3.8-13.3-7.6-19.9-11.4c-5.4-2.7-18.3-8.2-24.4-2.9
					c0,9.4,5.9,10,8.7,15.4c-0.1,0-0.2,0-0.2,0c-5-1.7-26.1-10.1-27.1,0c8.6,20.6,32.6,21.2,51,33.6c-34.9-9.1-41.6-17.6-51.2-20.5
					c-2.7-0.1-7.1-2.4-9.4-0.2c0.2,0.2,0.3,0.3,0.5,0.5c1.5,4.5,7.2,8.5,11,10.7c1.7,1,4.2,1.3,5,3.1c-11.5-2.3-19.5-8.3-30.5-11.7
					c-4.2-1.3-8.6-4.5-13-1.8c-0.4,1.1-1.1,1.9-0.7,3.1c-1.7,9.7,60.3,28.1,87.6,45.3c-13.1-0.1-98.1-39.8-111.7-36.8
					c-2.5,0.6-5.2,0.7-6.5,2.5c-7.2,17.9,24,25.4,33.8,28.3c0,0.1,0,0.2,0,0.2c0,0.2,0,0.3,0,0.5c-0.2,0.1-0.3,0.2-0.5,0.2
					c-3.6-1.4-7.3-0.8-11.6-2c-13-3.7-28-10-41.5-13.3c-6.6-1.6-16.7-3.8-17.5,4.4c3.7,5.4,8.4,6.4,13.9,10
					c-0.2,0.2-0.3,1.1-0.5,1.3c-4.3-0.3-8.5-1.3-12.7-1.6c-12.5-2.2-33.6-6.9-39.1,4.7c2.1,11.1,18,9.7,27.1,14.1c0,0.2,0,0.5,0,0.7
					c-0.2,0.1-0.3,0.2-0.5,0.2c-7.9,0-15.8,0-23.7,0c-9.9-1.7-21.6-2.3-31.7-1.5c-6.4,0-12.8,0-19.2,0c-9.2,2.2-25.2,4-34.7,1.8
					c0.1-0.2,0.2-0.3,0.2-0.5c19.9-6.5,44.6-9,64.3-15.9c6.9-2.4,13.4-5.7,19.7-8.7c10.8-5.1,21.8-8,32.2-13.2
					c6.5-3.5,13-6.8,19.5-10.3c12.3-5.2,24-10.1,35.1-16.8c8.5-5.1,17.1-10.9,25.5-16.3c9.4-6.1,16.6-15,26.6-20.5
					c4.9-2.7,6.6-10.8,10.1-13.2c6.1-4.3,11.7-9.6,19.2-12.3c5-1.7,5,2.4,8.3,2.9c0.5-0.3,1.1-0.6,1.6-0.9c4.8-2.2,5-2.9,7.2-7.6
					c0.5-0.2,0.9-0.3,1.4-0.5c1.2,0.6,2.2,1.2,3.4,1.8c1.4-0.3,2.7-0.6,4-0.9c1.8,0,3.7,0,5.6,0c2.4-0.8,5.4-2.7,8.3-3.6
					C808.6,465.5,810.9,465.1,813.2,464.7z"/>
				<path class="st21" d="M589.9,432.3c1.2,0.1,1.3,0.3,1.7,0.9c-0.2,0.2-0.3,0.5-0.5,0.7c-0.7,0.5-1.4,0.9-2,1.3
					c0,1.7,0.4,2.1,1.2,3.1c2.3,0.3,4.7,0.6,6.9,0.9c4.6-1.2,16-6.7,19.9-1.5c-1.8,4.2,0.1,5.2,1.7,8.3c4.7,0.7,15.1-1.5,18.2,2.7
					c1.6,2.1,0.6,4.5,2.7,6.1c6.7,4.8,13.9-1.7,19.2,7.6c0.9,1.5,1.9,1.8,2,4.4c-1.3,2.8-3.6,5.8-7.6,5.8c0-0.2,0-0.3,0-0.5
					c-0.9-2.8,2.6-5.8,0.9-9.1c-0.7-1.4-3.2-3.4-4.7-4c-3.2-0.4-6.4-0.8-9.6-1.2c-3.9-1.1-10.1-5.4-14.6-2.7c-1.8,7.4,4.5,5.3,7.2,9
					c-0.2,0.3-0.5,0.6-0.7,0.9c-2.8,0.5-4.7,1.3-7.4,0.2c-3.1-9.1-7.3-12.9-15.9-16.6c-1.5-0.6-3.7-1.3-5.6-0.5
					c-0.5,1.3-1.4,2.5-2.4,3.4c-8-1.6-13.3-4.2-19,1.8c0.8,7.2,9.4,5,14.6,6.9c1.7,3.7-2.8,4.7-5.8,5.8c-1.4-1.9-2.7-3.9-4-5.8
					c-5-3.8-14-1.6-18.2,1.3c-0.1,2.2,0.3,3.1,1.4,4.4c3.2-0.1,6.7-0.7,8.5,0.2c-0.1,0.7-0.2,1.3-0.2,2c-2.7,1.2-8.5,0-11.2,1.3
					c-1.8,12.3,14.3,16.6,23.3,21.2c15.3,7.9,114.1,37.1,114.1,37.2c-41.6-4.3-75.4-17.6-110.1-26.9c-2.9-1.3-5.8-2.5-8.7-3.8
					c-2.2-0.8-5.2-2-5.1,0.2c-0.2,0-0.5,0-0.7,0c-6.9-3.6-12.7-15.2-21-17c-0.6,0.9-1.2,1.8-1.7,2.7c0,2.7,0.8,3.8,1.4,5.8
					c-6-1.5-11.6-10.3-17.5-11.2c-0.2,0.1-0.5,0.2-0.7,0.2c-3.3,2.5-2.5,8.1-1.4,12c-3.2-0.8-8.5-6.9-12.5-4.2
					c-7.9,3.9,2.5,9.9,5.7,12c12.8,8.2,37.5,20.4,58,30.3c-55.8-13.4-75.9-41.2-83-31.7c-1.7,9.9,24.8,22.2,24.8,22.3
					c-23.7-3.9-26-14.2-39.2-18.1c-2.5-0.8-5.3-1.3-6.6-0.1c-2.9,7.1,21.4,20.5,53.5,39c-18.3,0-48.1-26.1-68.2-32.4
					c-2.8-0.9-6.2-1.3-7.3,0.3c-1.1,4.1,14.4,12.7,15.5,15.9c-0.4,0-14-5.7-23.7-9.8c-4.5-1.9-15-0.5-9.3,5.5
					c4.7,5,13.5,7.8,19.2,10.2c0,0.1,0,0.2,0,0.2c-8-0.4-17.4-3.1-23-6.3c-6.3-3.6-16.7-11.2-19.5,0.7c0.1,2.3,1.2,7.3,4.4,11.8
					c-3.6-1.3-33.6-7-34.4-9.5c5.9-0.5,28.6-12.7,33.6-14.5c20.2-7.2,21.9-9.5,40.7-18.1c13.7-6.3,25.8-4.3,38.7-11.6
					c4-2.2,7.8-13.2,12-15.9c2.7-1.2,5.5-2.2,8.3-3.4c2.1-0.1,4.2-0.2,6.3-0.2c5.7-1.7,6-4.3,9.6-7.6c1.5-1.3,2.6-0.5,4.3-2.5
					c-1-2.4-1.1-4.1-2.7-5.6c1.4-2.4,9.1-7.9,12.7-7.6c2.9,0.3,4.7,2.9,8.3,1.8c2.5-0.8,4.5-3.1,7.4-3.6c3.4-0.6,3.7,2.1,6.5,1.5
					c3.5-0.8,3.8-3.7,6.3-5.1C586.4,433.5,588.1,432.9,589.9,432.3z"/>
				<path class="st2" d="M-98.3,458.5c-0.1,0-0.2,0.1-0.3,0.1v0.1c0.2-0.1,0.4-0.2,0.6-0.2C-98.2,458.5-98.2,458.5-98.3,458.5z"/>
				<path class="st2" d="M-7.3,494.3c0.1,0,0.3,0,0.4,0C-7.1,494.4-7.2,494.4-7.3,494.3z"/>
				<path class="st9" d="M152.3,528.9l-74.1-22.7l-32.3-24.4l-67.6,34.7l-74.3,18.3c0,0,64.6,17.8,69.7,18.2s91.7,11.5,91.7,11.5
					S152.3,529.3,152.3,528.9z"/>
				
					<linearGradient id="SVGID_40_" gradientUnits="userSpaceOnUse" x1="119.0509" y1="58.3917" x2="128.3592" y2="97.9497" gradientTransform="matrix(1 0 0 -1 0 596)">
					<stop  offset="0" style="stop-color:#2E3192"/>
					<stop  offset="0.46" style="stop-color:#00AEEF"/>
					<stop  offset="1" style="stop-color:#FFFFFF"/>
				</linearGradient>
				<path class="st41" d="M39.9,495.8C67.4,521.6,95.2,537,162,541.6c17.6-3.4,62.2-27,50.8-36.4c-37.1,20.6-95.2,10-149.4-28.3
					C60.8,480.8,42.4,491.9,39.9,495.8z"/>
				
					<linearGradient id="SVGID_41_" gradientUnits="userSpaceOnUse" x1="65.3927" y1="50.644" x2="104.9099" y2="103.085" gradientTransform="matrix(1 0 0 -1 0 596)">
					<stop  offset="0" style="stop-color:#2E3192"/>
					<stop  offset="0.46" style="stop-color:#00AEEF"/>
					<stop  offset="1" style="stop-color:#FFFFFF"/>
				</linearGradient>
				<path class="st42" d="M151.7,539.1c-47.1-9.3-81.2-29.1-103.3-49.8l-24.1,3.1l-2.1,1.8c12.3,23.4,51.5,45.2,91.5,63.6
					L151.7,539.1z"/>
				
					<linearGradient id="SVGID_42_" gradientUnits="userSpaceOnUse" x1="48.7373" y1="44.7219" x2="76.6942" y2="72.678" gradientTransform="matrix(1 0 0 -1 0 596)">
					<stop  offset="0" style="stop-color:#2E3192"/>
					<stop  offset="0.46" style="stop-color:#00AEEF"/>
					<stop  offset="1" style="stop-color:#FFFFFF"/>
				</linearGradient>
				<path class="st43" d="M131.2,553.3c-32.8-7.5-80.5-33.2-96.4-56.8l-18.8,3.2c7.2,19.8,24.9,40,48.4,60.5
					C79.7,558.7,116.1,554.6,131.2,553.3z"/>
				
					<linearGradient id="SVGID_43_" gradientUnits="userSpaceOnUse" x1="15.7887" y1="36.3593" x2="51.9123" y2="63.1611" gradientTransform="matrix(1 0 0 -1 0 596)">
					<stop  offset="0" style="stop-color:#2E3192"/>
					<stop  offset="0.46" style="stop-color:#00AEEF"/>
					<stop  offset="1" style="stop-color:#FFFFFF"/>
				</linearGradient>
				<path class="st44" d="M102.2,565.8c-54.7-12.2-82.9-43.1-90.1-63L-20.2,516c3.6,16.1,29,34.7,49.7,54.2
					C41.5,569.3,88.2,567.2,102.2,565.8z"/>
				
					<linearGradient id="SVGID_44_" gradientUnits="userSpaceOnUse" x1="-11.8468" y1="34.5965" x2="13.7941" y2="63.7335" gradientTransform="matrix(1 0 0 -1 0 596)">
					<stop  offset="0" style="stop-color:#2E3192"/>
					<stop  offset="0.46" style="stop-color:#00AEEF"/>
					<stop  offset="1" style="stop-color:#FFFFFF"/>
				</linearGradient>
				<path class="st45" d="M62,569.7c-68.5-8.9-75-39.2-86-53.6l-41.6,14.2c1.4,12.1,63,42.5,86,54.3C28,583.8,47.8,570.9,62,569.7z"
					/>
				
					<linearGradient id="SVGID_45_" gradientUnits="userSpaceOnUse" x1="-50.8663" y1="24.5109" x2="-31.0515" y2="54.8169" gradientTransform="matrix(1 0 0 -1 0 596)">
					<stop  offset="0" style="stop-color:#2E3192"/>
					<stop  offset="0.46" style="stop-color:#00AEEF"/>
					<stop  offset="1" style="stop-color:#FFFFFF"/>
				</linearGradient>
				<path class="st46" d="M36.6,579.9c-32.7,0.9-93.6-38.2-95.9-49.2l-67.6,14.9c0,0,117.4,57.9,120.2,57.5
					C-3.9,602.6,31.7,580.4,36.6,579.9z"/>
				<path class="st21" d="M75.4,456.1c3.6-0.1,10.9,4.3,11.8,6.7c-7.2,0.8-14.4,0.1-18.3,5.3c0.4,4.1,6.5,10.2,0.7,10.5
					c-2.4,0.1-5.8,2-1.3,2.5c1.8,0.2,8.6-5.1,8-2c-2.2,1.7-0.1,5.2,1.5,7c14.2,16.2,55.1,30.8,78.7,37c-24.9,0-60.5-20.6-80.8-35
					c-4.3-3-17.8,0.9-10,9.1c4.1,4.3,9.6,12.1,25.8,21c-14.1-5.8-24.2-8.8-30.5-13.4c-9.9-7.4-19.4-9.8-11.3,1.2
					c5.7,7.6,17.4,18,41.3,32.6C59.4,530.7,33.6,501,27,502.8c-10.9,4.3,14.9,32.4,32.6,49.2c-4.4-1.4-25-18-37.8-28.9
					c-5-4.3-15.6-13.4-7.5,0.8c3.4,5.8,9.5,11.6,9.9,15.7c-0.1,0-9.9-6.6-10-6.6c-0.4-0.4-0.8-0.8-1.2-1.2
					c-5-2.9-20.5-21.3-28.7-8.5c-5.3,7.3,37.4,36.7,37.3,36.9c-10,0-38-21.6-47.8-28.4c-2.6-1.8-4.6-5.3-7.9-6.5
					c-2.7-1-5.1,0.7-6.8,1.7c-1.7,9,18.4,22.5,21,29.3c-0.5,0-17.4-13.4-17.9-13.4c-3.8-2.7-16.2-17.7-20.3-11.7
					c-2,4.6,12.1,12,13,15.3c-1,0-17.8-5-24.2-8.3c-5.5-2.9-18-1.6-22.7-5c0-0.1,0-0.2,0-0.3c0.1-0.1,0.2-0.2,0.3-0.3
					c6.4,0,18.7-6.9,24.3-8.6c7.8-1.1,15.6-2,23.4-3.1C-22.7,514.7-5.8,508,9.9,497c4.7-3.3,11.6-6,15.2-10.4
					c2.3-2.9,3.6-7.2,6.5-9.5c1.6-1.3,6.4-4.7,9-4.2c1.8,0.4,3.2,3.3,6.5,2.2c1.5-1.2,3-2.2,4.5-3.4c2.5-1.3,5.4-1.5,7.9-3.1
					c2.5-1.6,3.9-5,6.5-6.7C69.2,459.9,72.3,458,75.4,456.1z"/>
				<path class="st21" d="M530.1,604.1c-30.9-1.7-61.9-13-93-24.5c40.2,8.8,80.4,14.5,120.4,13.6
					C548.3,596.8,539.2,600.4,530.1,604.1z"/>
				
					<linearGradient id="SVGID_46_" gradientUnits="userSpaceOnUse" x1="175.3241" y1="236.9582" x2="248.544" y2="236.9582" gradientTransform="matrix(1 0 0 -1 0 596)">
					<stop  offset="0" style="stop-color:#2E3192"/>
					<stop  offset="0.46" style="stop-color:#00AEEF"/>
					<stop  offset="1" style="stop-color:#FFFFFF"/>
				</linearGradient>
				<path class="st47" d="M214.7,334.4c4.4,0.1,8.1,1.7,10.7,3.5c0.7,2.9,1,8.6,2.9,10.4c1.7,0.5,3.6,0.9,5.3,1.3
					c2.7,1,6.3,3.2,8.1,5.3c0,0.3,0,0.6,0,0.8c-10.6,0.4-21.7,17-20.9,28c-0.4,0-0.7,0-1.1,0c-5.9-6.7-11.7-12.6-22.1-14.9
					c-4.4-1-11.7,3.3-16.3,0.6c-7-4.2-1-23.7,1.7-27.4c1.1-1.4,4.1-2.9,5.9-3.5c5-1.6,7.6,3.9,11,2.9c6.5-1.3,4-1.6,7.5-5.6
					C209.7,335.3,212.1,334.9,214.7,334.4z"/>
				
					<linearGradient id="SVGID_47_" gradientUnits="userSpaceOnUse" x1="170.1407" y1="243.119" x2="239.172" y2="243.119" gradientTransform="matrix(1 0 0 -1 0 596)">
					<stop  offset="0" style="stop-color:#2E3192"/>
					<stop  offset="0.46" style="stop-color:#00AEEF"/>
					<stop  offset="1" style="stop-color:#FFFFFF"/>
				</linearGradient>
				<path class="st48" d="M201.5,370.6c6-12.2,16.6-27.4,24.2-30.9c-0.2-1.3-0.2-0.9-0.5-1.7c-2.6-1.7-6.3-3.4-10.7-3.5l-7.5,1.3
					c-3.5,3.9-0.9,4.3-7.5,5.6c-3.4,1-6-4.6-11-2.9c-1.7,0.6-4.9,2-5.9,3.5c-2.6,3.8-8.5,23.2-1.7,27.4c4.6,2.8,9.5,0.9,13.9,1.8
					C196.2,371.4,200.7,370.3,201.5,370.6z"/>
				
					<linearGradient id="SVGID_48_" gradientUnits="userSpaceOnUse" x1="183.3234" y1="237.1509" x2="250.8067" y2="237.1509" gradientTransform="matrix(1 0 0 -1 0 596)">
					<stop  offset="0" style="stop-color:#2E3192"/>
					<stop  offset="0.46" style="stop-color:#00AEEF"/>
					<stop  offset="1" style="stop-color:#FFFFFF"/>
				</linearGradient>
				<path class="st49" d="M226.2,340.8c-9,4.6-20,15.1-25.4,29.9c5.1,1.6,8.8,3.1,12.3,6.2c3.1-10.8,11.8-21.7,21-27.1
					c-0.1,0-0.3-0.1-0.4-0.1l-1.4-4.9C231,343.4,226.7,343.6,226.2,340.8z"/>
				
					<linearGradient id="SVGID_49_" gradientUnits="userSpaceOnUse" x1="180.4785" y1="229.3016" x2="274.1772" y2="229.3016" gradientTransform="matrix(1 0 0 -1 0 596)">
					<stop  offset="0" style="stop-color:#2E3192"/>
					<stop  offset="0.46" style="stop-color:#00AEEF"/>
					<stop  offset="1" style="stop-color:#FFFFFF"/>
				</linearGradient>
				<path class="st50" d="M234,349.7c-9,5.4-17.8,16.3-21,27.1c2.3,2.1,4.6,4.4,6.7,6.9h1.1c-0.9-11.1,10.3-27.5,20.9-28v-0.8
					C240,352.9,236.7,350.8,234,349.7z"/>
				<path class="st21" d="M272.7,279.5c2.8,0,4.5,1.3,6,2.5c0,0.6,0,1.2,0,1.8c-0.3,0.1-0.6,0.2-0.9,0.2c-7.6-0.8-13.7,3.7-17.9,7.6
					c-0.1,6.5,6.1,11.2,13.4,9.3c3.4-0.5,6.7-1.1,10.1-1.5c7.5-2.2,18.1-5.6,25.9-0.9c4.4,2.6,4.2,8.6,7.9,11.7
					c2.9,2.4,10.7-0.2,13.9,2c3.8,2.6,0.9,5.3,1.7,9c0.8,2,1.7,4,2.4,6.1c4.8,9.3,15.4,10.5,19,22.5c2.2,7.3-4.8,15.6-9.4,9.1
					c1.2-3.9,3-6.7,4-10c1.7-5.8-7.6-12.5-12-13c-2.8,1.4-2,4.5-4.3,6.1c-1.3,0.6-1.9-0.1-2.7-0.7c-1.8-4.3-1.8-12-8.1-12.3
					c-1.3,0.9-2.1,1.6-4.3,1.8c-0.2-0.2-0.5-0.3-0.7-0.5c-0.2-2.1-0.5-4.3-0.7-6.5c-1-2.6-8.9-9.4-13-7.6c-1.2,0.7-1.7,1.6-2.2,2.9
					c0.6,4.6,7.5,8.8,6,12.7c-0.7,1.2-1.5,1.6-3.4,1.5c-0.1-0.1-0.2-0.2-0.2-0.2c-0.4-0.3-0.1,0-0.5-0.5c-2.1-5.1-1.3-10.3-8.3-11
					c-0.2,0.1-0.5,0.2-0.7,0.2c-0.4,2.5-0.1,5.1-1.4,6.9c-0.8,0-1.7,0-2.4,0c-0.9-0.9-1.7-1.8-2.7-2.7c-0.8-1.3-0.3-3.1-1.4-4
					c-6.4-6.5-11.4,4.1-17.3,4.4c-4.9-3.2-13-5.6-13.9,3.4c4.7,7.8,14.6,5,21.9,9.6c2.1,11.2,3.4,5.7,10.3,10.5c2,1.4,2.5,4.9,4,6.9
					c2.1,2.9,6.7,3.1,8.7,6.1c0,1.5-0.2,2.1-0.7,2.9c-2.6,1.1-5.4,1.4-8.1,0c0-0.1,0-0.2,0-0.2c0.5-2.3,1.3-3.4,1.4-6.1
					c-4.8-3.8-25.3-20.3-30.9-11.4c0.7,3.9,3.5,4.3,4.5,7.1c-0.2,0-0.3,0-0.5,0c-5.1,1.3-5.8-4.4-7.9-7.1c-5.2-7-13.6-7.9-20.1-1.8
					c0.3,8.9,10.3,6.8,13.2,12.7c0.7,2,0.3,4.4-0.2,6.3c-1.3,0.6-1.6,1.3-3.4,1.5c-5.4-3.1-1.2-5.7-3.8-9.6
					c-1.7-2.4-10.5-8.1-13.4-9.3c-1.1-0.2-2.1-0.3-3.1-0.5c-1.7-1-1.2-6.1-2.2-7.8c-2.7-4.6-14.7-5.4-19.9-2.2
					c0.1,3.3-0.8,6.1-2,8.1c-0.6,0.2-1.2,0.3-1.7,0.5c-11.4-9.7-25.7,11.1-17.5,21.9c3.7,4.8,10.7-0.3,17,1.3
					c5.2,1.3,11.1,4.8,13.9,8.7c0.9,1.2,1.7,2.4,2.7,3.6c1.5,0.2,3,0.3,4.5,0.5c6.3,1.3,15.2,3.2,13.4,11.7
					c-1.6,1.8-3.6,3.2-6.7,2.2c0-3.4,1-4.7,0.9-8.3c-0.6-0.8-1.2-1.4-1.7-2.2c-2.9-1.8-7.7,0-11.5-1.2c-3-2.7-5.9-5.4-8.9-8
					c-1.2,0.1-1.6,0.3-2,1.2c-1.4,4.3,1.8,6.9,3.8,9.3c0,0.3,0,0.6,0,0.9c-1,0.7-1.8,1.1-3.6,1.2c-2.9-4.5-4.7-9.4-8.5-13
					c-0.2,0-0.3,0-0.5,0c-3.1,0-3.6,1.9-5.8,2.5c-2.3,0.6-4.6-2.3-7.2-0.5c-0.2,0.1-0.3,0.2-0.5,0.2c-0.5,1.3-1.1,2.5-1.6,3.8
					c2.7,6.2,10.9,4.2,11,11.4c-0.8,1.5-1.7,2.2-2.7,3.4c-2.3,0.1-5,0.2-6-1.5c-1.2-1.8,0.9-3.7,0.2-5.8c-0.6-1.8-2.5-2.5-3.6-3.8
					c-3.4-3.9-9.6-10.7-16.1-6.1c-2.8,8.9-14.3,1.2-20.8,3.1c-1.4,0.4-1.3,2.2-2.2,2.9c-5,3.6-10,5.3-14.1,9.6
					c-5.7,6.1-8.4,14.8-12.3,22.8c-2.3,4.7-3.4,11.8-4.7,17c0,2.5,0,5.1,0,7.6c-1.7,10.1,1.4,20.4,4.3,27.3
					c12.9,29.9,68.8,48.4,68.8,48.5c-45.2,14.3-86.7-11.7-106.4-31.5c-17-17.5-100.4,53.5-114.7,32.9c-5-7.2-1.7-21.5-6.8-29.2
					c4.6-3.1,10.1-6.5,16-10.1c0.9-10.4,1,0.8,13.7-1c9.4-1.3,11.8,2.3,17.6-7.5c6.6-11.5,17.1-13.5,23.9-12.7
					c3.1,0.4,10.6,3,15.9,3c7,0,19.4-7.5,16.8-16.2c-1.7-5.7-6.7-9.3-13.4-9.3c-7.8,0-12.3-4.3-2-4.3c3.1,0,5,2,8.7,2
					c6.3,0,1.1-5.6-2.3-5.6c-6.4,0-24.4-11.4-24.4,2.8c0,3.9-4.8,1.3-4.8-1.6c0-3,0.8-7.4,4.1-8.2c9.2-2.1,9.3,2.9,15.2-2.4
					c3.6-3.2,13.6,5.2,16.6,6.6c4.1,2,9.7,2.6,9.7-1.9c0-5.4-1.1-4.2-3.5-5.8c-6.3-3.8,1.7-7.9,5-4.7c2.1,2.1,2.2,2.8,2.2,6
					c0,1.4-0.1,4,0,6.2c0.1,0.7,0.2,1.3,0.2,1.9c0,0.1,0,0.2,0,0.3c0.1,0.3,0.1,0.5,0.2,0.7c0.2,0.5,0.3,0.8,0.2,1.1
					c2.4,7,5.6,7.1,5.6-0.5c0-9-0.3-20.2,1-23c2.8-9.4,9.7-13.4,13.2-17.9c0.2-4.5-0.5-6-3.1-7.6c-1.7,0.1-3,0.8-3.6,0.5
					c-1.4-1-1.1-4-0.2-5.4c5-0.4,9.1-0.7,11-4.7c-0.6-5.7-3.8-4.1,0.1-10c1.8-2.8,4.3-5.3,7.3-3.4c0.5,0.5,0.4,0.6,0.5,1.5
					c-0.1,0.2-0.2,0.5-0.2,0.7c-2,1.1-3,2.2-4.3,4c0.1,5.6,6,10.6,12.3,7.6c5.2-2.6,10-4.9,15-10.4c0.4-0.5,0.8-0.9,1.2-1.3
					c0-0.6,0.1-1.3,0-1.8c-0.3-2.4-0.4-5.2-1.6-7.1c-1.4-0.8-2.3-1.3-2.8-2.2c-0.5-0.2-1-0.3-1.7-0.3c-6.3-0.7-4.6-1.9-8.4-4.5
					c-5-3.4-8.2-4.1-9.1,2.4c-0.5,3.3-5.5,3.6-6.7,0.8c-1.3-3.1-0.3-7.6,3-8.8c2.6-1,9.2,1.3,10.5,0.2c1.9-1.7,3.6-4.3,7.1-2.8
					c1.7,0.8,5.6,3.8,9.1,6.9c1.9,0,5,1.3,7,1.1c5.5-0.8-3.7-16.3,3.9-16.3c6.2,0,4,6.3,4,11.8c0,5.9,8.1,6.7,11.9,3.9
					c6.3-5.1,11.9-13.2,8.5-21.3c-2.9-7-10-4.9-15.6-8.5c0.1-4.9,5.4-6.9,10.5-5.8c1.4,1.2,3.4,4.1,5.8,3.4c1.7-1.9,3.6-3.9,5.3-5.8
					c6.4-3.4,8.1,4.5,14.1,3.8c3.2-0.4,4.6-5.5,6.5-7.4c0.4,0,0.8,0,1.2,0c0.4,0.6,1.9,1.1,1.6,2.2c-0.3,1.1-12,6.3-2.9,11.2
					c2.5,1.3,4.4-0.6,6-1.2c11.1-3.9,10-10.5,17.7-15.6c4.7-3.1,8.5,0.2,13-0.5c4.5-0.6,6.9-6.6,11.2-8.1c9.3-3.1,11.3,2.4,17.5,2.9
					c4.3-3.1,7.1-8,11.5-10.7C266.8,280.4,270.4,280.9,272.7,279.5z"/>
				
					<linearGradient id="SVGID_50_" gradientUnits="userSpaceOnUse" x1="52.8857" y1="-7.8731" x2="164.9001" y2="18.3176" gradientTransform="matrix(1 0 0 -1 0 596)">
					<stop  offset="0" style="stop-color:#2E3192"/>
					<stop  offset="0.46" style="stop-color:#00AEEF"/>
					<stop  offset="1" style="stop-color:#FFFFFF"/>
				</linearGradient>
				<path class="st51" d="M177,620.2c-37.4-37.2-63.3-58.2-55.7-77.7l-14.9,13.7L0.2,599.2c0,0,101.5,18.9,106.1,18.8
					C111,617.9,168.8,619.9,177,620.2z"/>
				<path class="st21" d="M341.4,450.4c-10.1,0.2-21.4-5-28.4,2.7c0.1,10.2,12.2,4.1,16.3,9.8c-0.2,0.3-0.5,0.6-0.7,0.9
					c-1.5,0.4-2.6,1.5-4.7,1.2c-2.6-0.5-5.2-1.1-7.9-1.5c-8.1,1.8-14.6,7.3-14.8,16.6c3.4,5.1,4,5.7,4,9.6
					c36.6,19.1,141.2,56.7,224.1,37c33.5,23.1,82.7,36.6,128.6,34c-39.7,10.5-87.9,2.9-131.3-12.9c-6.4,0.5-29.1-6.2-17.9,6.8
					c10.3,11.9,34.9,20.8,53.9,24.5c-33.9-3.1-61.6-14.4-79.8-30.7c-46.1-6.3-106.5-18-141.4-32.5c-6.6-2.7-25.7-13.9-18.6-4.6
					c3.9,5.4,28.6,25.9,82.7,45.7c-42.4-10.2-85.3-32.1-94.6-42.8c-5.7-6.2-8.4-15.7-15.5-20.3c-2.4-1.6-7.9-4.9-11-1.8
					c-1.6,3.8,0.7,8.1,1.7,11.2c3.8,10.4,7.9,18.4,14.6,25.7c10.6,11.6,24.7,17.5,41.2,23.2c5.4,1.9,12.2,1.1,17.9,3.1
					c3.4,1.3,10,8.4,14.1,10.7c11.5,6.5,22.9,13.6,35.6,18.3c4.4,2.1,8.6,4.1,13,6.3c0,0.3,0,0.6,0,0.9c-0.1,0-0.2,0-0.2,0
					c-12.9-3.6-23.5-9.7-35.3-13.6c-6-1.8-12-3.8-18.2-5.6c-4.9-2-9.7-4-14.6-6.1c-0.3,0.4-0.6,0.8-0.9,1.2
					c1.6,17.2,16.7,25.9,29.3,32.2c3.9,1.9,8.3,5.6,13,6.3c0,0.3,0,0.6,0,0.9c-0.1,0-0.2,0-0.2,0c-19-5.9-32.9-15.7-47.5-25.7
					c-7-4.8-11.6-15-19-20.3c-4.7-3.4-8.7-7.5-13.7-10.3c-7.6-4.2-15-6-20.1-12.5c-2.8-4.8-5.6-9.7-8.5-14.5
					c-3.2-4.7-7.6-8.4-11.6-12.3c-2.1-2.1-8.7-6.7-12.7-4.4c-2.3,11.9,0.6,24.2,5.1,33.3c6.8,13.7,19.8,24.7,31.4,33.7
					c4.2,3.8,8.3,7.6,12.5,11.4c5.1,4.4,11.9,8.3,17.9,11.7c7.1,3.9,14.2,7.9,21.3,11.8c3.1,1.3,8.8,2.3,10.3,5.1
					c-0.5,0-0.9,0-1.4,0c-17.3-7-33.1-15-48.3-23.9c-13.3-7.7-26.2-14.3-36.7-24.6c-5.7-5.7-11.7-12.8-16.3-19.5
					c-2.3-3.4-4.1-6.8-7.2-9.3c-2.7-2.2-3.8-7.2-8.3-7.6c-0.3,0.4-0.6,0.8-0.9,1.2c2.7,6.2,3,15.3,5.9,21.5c4.2,8.8,15.3,28.4,31,42
					c-11.7,0-37.5-33.5-42.4-43.8c-2.4-5-5.7-9.5-7.6-14.9c-0.9-2.5-1.4-6.7-3.4-8c-1-0.7-2-0.8-3.1-0.2c-0.6,3.4-3.7,6.5-4.7,10
					c-3,10.6,2.9,23.5,6.3,29.5c2.5,4.4,9.2,5.9,11.6,10c0.2,1,0.3,1.9,0.5,2.9c0.9,2.9,2.7,5.7,4.3,8c1,1.4,5,5.4,4.3,6.7
					c-5-3-8.3-8.6-11.6-13.4c-2.1-1.4-4.2-3-6.3-4.4c-2.2-2.2-4.5-4.4-6.7-6.7c-2.1-2.2-4.3-8-7.9-8.5c-0.1,0.1-0.2,0.2-0.2,0.2
					c-0.2,0.2-0.5,0.3-0.7,0.5c0.3,2.3,1.8,3.5,2.4,5.4c1.9,5.8,2.4,10,5.1,14.5c1.5,2.2,3,4.4,4.5,6.7c-3.2-1-5-4.3-7.4-6.3
					c-6.4-5.3-11.1-11.1-15.2-18.8c-3.7-6.9-4.6-14.5-10.5-19c-13.5-10-10.9,11.5-7.1,20.3c15.4,36.1,68.4,82,68.3,82.1
					c-47.9-19.6-71.5-61.3-89.3-85.9c-6.4-8.8-20.8-12-7,16.1c-2.8-1.3-16.9-17.8-21.6-15.8c-8.7,2.5-0.8,10.4,1.6,13
					c9.5,10.5,36.8,37,53,50.7c-48.4-23.7-65.6-61.3-75.4-53.1c-4.9,9.5,23.4,32.9,23.3,33c-21.1-8.4-27.2-25.1-38.3-31.5
					c-2.1-1.3-4.7-2.2-6.2-1.3c-8.6,6.5,20.7,30.5,45,54.9c-17.3-3.4-40.6-33.5-57.5-43.5c-21.2-14.4-20.3-2.3-15.3,4
					c4,5.1,13.4,12.5,18,15.9c-1.2,3.7-24.4-3.9-31.5-10.7c-4.9-4.7-11.5-11.7-16.4-3c-1.9,4.8,4.1,9.3,5.6,14.4
					c-1.9-1.3-41.2,0.6-49.2-3.6c-5,6.7,9.2,6,1.4-1.7c-3.9-4.6,11.6,3.4,7.7-1.3c20.9-6.1,39.9-24.8,59-34.1
					c7.3-5.3,16.9-11.5,20.3-14.7c5.1-4.8,11-5.9,18.6-4.5c1.7-0.9,3.3-1.7,4.9-2.6c2.4-0.6,7.2-1.9,12.9-3.7
					c6.7-5.5,13.6-12.4,21.3-12.9c16.8-1.1,25-3.4,38.3-12c3.5-2.2,10.6-6.5,16.3-7.1c0.3-0.5,0.5-0.9,0.7-1.3
					c2.4-5.9,0-18,4.5-21.9c4.4-3.8,9.8-7,16.1-8.7c5.6-1.5,7.7,1.8,10.3,3.1c3.8,1.8,10.1-1.8,12.7-3.4c0-8.6-4.6-8.8-4.7-14.1
					c5.6-2.8,11.6-7.1,18.2-9.1c5.5-1.7,10.1,2.5,15.9,0.5c10.1-3.6,13.2-10.2,25.9-10c-0.1,0.4-0.2,0.8-0.2,1.2
					c-3.3,1.3-5.7,1.9-7.6,4.4c-0.2,7.9,8,8.8,14.4,6.3c11.2-4.5,30.5-22.2,43-7.6C339.2,446.8,341.1,448.1,341.4,450.4z"/>
			</g>
		</g>
	</g>
</g>
<g id="Calque_2">
	<linearGradient id="SVGID_51_" gradientUnits="userSpaceOnUse" x1="421.1631" y1="595" x2="421.1631" y2="501">
		<stop  offset="5.128205e-03" style="stop-color:#1577C6"/>
		<stop  offset="0.1403" style="stop-color:#105A95;stop-opacity:0.8641"/>
		<stop  offset="0.2859" style="stop-color:#0B3E68;stop-opacity:0.7177"/>
		<stop  offset="0.4327" style="stop-color:#072842;stop-opacity:0.5702"/>
		<stop  offset="0.5781" style="stop-color:#041625;stop-opacity:0.424"/>
		<stop  offset="0.722" style="stop-color:#020A11;stop-opacity:0.2794"/>
		<stop  offset="0.8635" style="stop-color:#000304;stop-opacity:0.1372"/>
		<stop  offset="1" style="stop-color:#000000;stop-opacity:0"/>
	</linearGradient>
	<rect y="501" class="st52" width="842.3" height="94"/>
</g>
</svg>
